<svg xmlns="http://www.w3.org/2000/svg" data-v-fde0c5aa="" viewBox="0 0 300 300" class="iconAbove" width="300" height="300"><metadata><rdf:RDF xmlns:rdf="http://www.w3.org/1999/02/22-rdf-syntax-ns#" xmlns:dc="http://purl.org/dc/elements/1.1/"><rdf:Description><dc:creator>RealFaviconGenerator</dc:creator><dc:source>https://realfavicongenerator.net</dc:source></rdf:Description></rdf:RDF></metadata><defs data-v-fde0c5aa=""><linearGradient data-v-fde0c5aa="" gradientTransform="rotate(25)" id="0f6c564f-3811-441c-bf03-d3d0c98381df" x1="0%" y1="0%" x2="100%" y2="0%"><stop data-v-fde0c5aa="" offset="0%" stop-color="#4E1A70" stop-opacity="1"></stop><stop data-v-fde0c5aa="" offset="100%" stop-color="#2B4CF2" stop-opacity="1"></stop></linearGradient></defs><rect data-v-fde0c5aa="" fill="url(#0f6c564f-3811-441c-bf03-d3d0c98381df)" x="0" y="0" width="300px" height="300px" class="logo-background-square"></rect><defs data-v-fde0c5aa=""></defs><g data-v-fde0c5aa="" id="5ab7f4b2-f55e-4bbd-bf70-dd0e31adcb3b" fill="#ffffff" transform="matrix(3.450106129169617,0,0,3.450106129169617,17.92993624024129,176.49203784457052)"><path d="M3.32 3.42L3.32 7.48L7.24 3.42L5.96 3.12L5.96 2.52L9.65 2.52L9.65 3.12L8.41 3.42L5.14 6.66L9.32 11.73L10.50 12.00L10.50 12.60L6.59 12.60L6.59 12.00L7.52 11.72L4.20 7.62L3.32 8.46L3.32 11.70L4.49 12.00L4.49 12.60L0.60 12.60L0.60 12.00L1.92 11.70L1.92 3.42L0.60 3.12L0.60 2.52L4.49 2.52L4.49 3.12L3.32 3.42ZM14.95 11.83L14.95 11.83Q17.33 11.83 17.33 9.48L17.33 9.48L17.33 8.50L16.16 8.20L16.16 7.57L19.91 7.57L19.91 8.20L18.73 8.50L18.73 12.60L18.00 12.60L17.65 11.49Q17.04 12.17 16.39 12.45Q15.75 12.74 14.87 12.74L14.87 12.74Q12.95 12.74 11.80 11.56L11.80 11.56Q11.14 10.89 10.79 9.90Q10.44 8.90 10.44 7.67L10.44 7.67Q10.44 6.43 10.81 5.36Q11.19 4.30 11.86 3.58L11.86 3.58Q12.99 2.38 14.92 2.38L14.92 2.38Q15.76 2.38 16.36 2.64Q16.95 2.90 17.49 3.49L17.49 3.49L17.79 2.52L18.56 2.52L18.56 5.61L17.71 5.61Q17.30 3.14 14.87 3.14L14.87 3.14Q14.15 3.14 13.68 3.37Q13.20 3.60 12.85 4.09L12.85 4.09Q12.45 4.68 12.22 5.57Q12.00 6.47 12.00 7.48L12.00 7.48Q12.00 8.53 12.24 9.40Q12.49 10.28 12.94 10.89L12.94 10.89Q13.30 11.38 13.77 11.61Q14.24 11.83 14.95 11.83ZM28.99 3.14L28.99 3.14Q27.66 3.14 27.01 4.00L27.01 4.00Q26.59 4.55 26.35 5.44Q26.11 6.33 26.11 7.39L26.11 7.39Q26.11 8.40 26.32 9.26Q26.53 10.12 26.91 10.71L26.91 10.71Q27.29 11.30 27.83 11.57Q28.36 11.84 29.18 11.84L29.18 11.84Q30.42 11.84 31.16 11.25Q31.91 10.65 32.10 9.48L32.10 9.48L32.87 9.48Q32.55 11.13 31.61 11.93Q30.67 12.74 29.04 12.74L29.04 12.74Q27.10 12.74 25.96 11.62L25.96 11.62Q25.27 10.95 24.91 9.93Q24.54 8.92 24.54 7.66L24.54 7.66Q24.54 6.24 25.00 5.10Q25.47 3.96 26.31 3.26L26.31 3.26Q27.37 2.38 29.12 2.38L29.12 2.38Q29.55 2.38 29.90 2.43Q30.24 2.48 30.53 2.60Q30.83 2.72 31.09 2.91Q31.35 3.11 31.61 3.40L31.61 3.40L31.89 2.52L32.66 2.52L32.66 5.61L31.81 5.61Q31.40 3.14 28.99 3.14ZM39.65 11.76L39.65 8.64Q39.65 7.74 39.60 7.29Q39.55 6.83 39.42 6.58L39.42 6.58Q39.07 5.89 38.19 5.89L38.19 5.89Q37.80 5.89 37.44 6.03Q37.07 6.17 36.79 6.41L36.79 6.41Q36.48 6.69 36.34 7.06Q36.19 7.42 36.16 7.97L36.16 7.97L36.16 11.76L37.10 12.03L37.10 12.60L33.73 12.60L33.73 12.03L34.80 11.76L34.80 2.52L33.73 2.25L33.73 1.68L36.16 1.68L36.16 6.36Q36.58 5.68 37.28 5.29Q37.97 4.90 38.77 4.90L38.77 4.90Q39.33 4.90 39.77 5.10Q40.22 5.29 40.49 5.66L40.49 5.66Q40.77 6.05 40.89 6.75Q41.01 7.46 41.01 8.67L41.01 8.67L41.01 11.76L42.08 12.03L42.08 12.60L38.71 12.60L38.71 12.03L39.65 11.76ZM42.92 10.96L42.92 10.96Q42.92 10.42 43.17 10.00Q43.41 9.58 43.95 9.25Q44.48 8.92 45.32 8.68Q46.16 8.44 47.33 8.26L47.33 8.26Q47.26 7.43 47.17 6.97Q47.08 6.51 46.93 6.23L46.93 6.23Q46.73 5.87 46.38 5.69Q46.03 5.52 45.63 5.52L45.63 5.52Q45.23 5.52 44.92 5.66Q44.60 5.80 44.49 6.03L44.49 6.03Q44.69 6.19 44.78 6.40Q44.87 6.62 44.87 6.82L44.87 6.82Q44.87 7.17 44.64 7.37Q44.41 7.57 44.07 7.57L44.07 7.57Q43.74 7.57 43.52 7.35Q43.30 7.13 43.30 6.72L43.30 6.72Q43.30 6.29 43.54 5.94Q43.78 5.60 44.16 5.37Q44.55 5.14 45.03 5.02Q45.51 4.90 45.99 4.90L45.99 4.90Q47.18 4.90 47.87 5.59L47.87 5.59Q48.73 6.45 48.73 8.67L48.73 8.67L48.73 10.70Q48.73 11.40 48.83 11.65Q48.92 11.91 49.22 11.91L49.22 11.91L49.85 11.91L49.85 12.33Q48.85 12.74 48.29 12.74L48.29 12.74Q48.08 12.74 47.94 12.67Q47.80 12.60 47.71 12.42Q47.63 12.25 47.59 11.96Q47.56 11.66 47.56 11.21L47.56 11.21L47.50 11.21Q47.07 11.93 46.35 12.33Q45.64 12.74 44.81 12.74L44.81 12.74Q43.93 12.74 43.43 12.27Q42.92 11.80 42.92 10.96ZM45.40 11.93L45.40 11.93Q45.79 11.93 46.22 11.72Q46.65 11.52 46.94 11.16L46.94 11.16Q47.38 10.63 47.38 9.59L47.38 9.59Q47.38 9.35 47.36 9.12Q47.35 8.89 47.32 8.68L47.32 8.68Q46.47 8.85 45.90 9.03Q45.33 9.21 44.99 9.44Q44.65 9.67 44.51 9.97Q44.37 10.28 44.37 10.67L44.37 10.67Q44.37 11.27 44.64 11.60Q44.91 11.93 45.40 11.93ZM50.04 5.74L50.04 5.24L51.39 5.04L51.58 3.28L52.75 3.11L52.75 5.04L54.54 5.04L54.54 5.74L52.75 5.74L52.75 10.74Q52.75 11.21 52.77 11.39Q52.78 11.56 52.82 11.68L52.82 11.68Q52.86 11.79 52.98 11.82Q53.09 11.84 53.34 11.84L53.34 11.84L54.32 11.84L54.32 12.25Q53.65 12.50 53.14 12.62Q52.63 12.74 52.32 12.74L52.32 12.74Q51.69 12.74 51.51 12.22L51.51 12.22Q51.44 12.05 51.42 11.79Q51.39 11.54 51.39 11.00L51.39 11.00L51.39 5.74L50.04 5.74ZM56.27 5.88L55.19 5.61L55.19 5.04L57.62 5.04L57.62 11.76L58.70 12.03L58.70 12.60L55.19 12.60L55.19 12.03L56.27 11.76L56.27 5.88ZM56.07 2.79L56.07 2.79Q56.07 2.38 56.30 2.14Q56.53 1.90 56.94 1.90L56.94 1.90Q57.34 1.90 57.58 2.14Q57.82 2.38 57.82 2.79L57.82 2.79Q57.82 3.19 57.58 3.42Q57.34 3.65 56.94 3.65L56.94 3.65Q56.53 3.65 56.30 3.42Q56.07 3.19 56.07 2.79ZM60.63 11.76L60.63 5.88L59.56 5.61L59.56 5.04L61.57 5.04L61.88 6.44L61.94 6.44Q62.36 5.73 63.06 5.31Q63.77 4.90 64.60 4.90L64.60 4.90Q65.16 4.90 65.60 5.10Q66.05 5.29 66.32 5.66L66.32 5.66Q66.60 6.05 66.72 6.75Q66.84 7.46 66.84 8.67L66.84 8.67L66.84 11.76L67.91 12.03L67.91 12.60L64.54 12.60L64.54 12.03L65.48 11.76L65.48 8.64Q65.48 7.74 65.43 7.29Q65.38 6.83 65.25 6.58L65.25 6.58Q64.90 5.89 64.02 5.89L64.02 5.89Q63.63 5.89 63.27 6.03Q62.90 6.17 62.62 6.41L62.62 6.41Q62.31 6.69 62.17 7.06Q62.02 7.43 61.99 8.02L61.99 8.02L61.99 11.76L62.93 12.03L62.93 12.60L59.56 12.60L59.56 12.03L60.63 11.76ZM75.32 12.74L75.32 12.74Q75.32 13.27 75.09 13.72Q74.86 14.17 74.42 14.49Q73.98 14.81 73.34 14.99Q72.70 15.18 71.90 15.18L71.90 15.18Q70.29 15.18 69.47 14.72Q68.64 14.27 68.64 13.43L68.64 13.43Q68.64 12.77 69.03 12.42Q69.43 12.07 70.11 11.96L70.11 11.96L70.11 11.90Q69.19 11.63 69.19 10.81L69.19 10.81Q69.19 10.37 69.50 10.00Q69.82 9.63 70.49 9.39L70.49 9.39Q69.79 9.14 69.42 8.61Q69.05 8.08 69.05 7.31L69.05 7.31Q69.05 6.75 69.25 6.31Q69.45 5.87 69.83 5.55Q70.20 5.24 70.72 5.07Q71.25 4.90 71.90 4.90L71.90 4.90Q73.21 4.90 73.96 5.54L73.96 5.54L74.44 5.38L75.73 4.76L75.96 4.76L75.96 5.99L75.73 5.99L74.75 5.88L74.27 5.88Q74.68 6.44 74.68 7.22L74.68 7.22Q74.68 8.33 73.92 8.97Q73.16 9.60 71.81 9.60L71.81 9.60Q71.65 9.60 71.52 9.60Q71.39 9.59 71.25 9.58L71.25 9.58Q70.14 9.74 70.14 10.40L70.14 10.40Q70.14 10.72 70.39 10.84Q70.64 10.96 71.37 10.96L71.37 10.96L73.00 10.96Q74.14 10.96 74.73 11.39Q75.32 11.82 75.32 12.74ZM72.38 12.04L71.47 12.04Q70.53 12.04 70.11 12.36Q69.69 12.68 69.69 13.20L69.69 13.20Q69.69 14.48 71.88 14.48L71.88 14.48Q73.07 14.48 73.69 14.12Q74.31 13.76 74.31 13.05L74.31 13.05Q74.31 12.49 73.89 12.26Q73.46 12.04 72.38 12.04L72.38 12.04ZM70.28 7.25L70.28 7.25Q70.28 8.09 70.66 8.53Q71.04 8.96 71.86 8.96L71.86 8.96Q72.69 8.96 73.07 8.53Q73.44 8.09 73.44 7.25L73.44 7.25Q73.44 6.41 73.07 5.98Q72.69 5.54 71.86 5.54L71.86 5.54Q71.04 5.54 70.66 5.98Q70.28 6.41 70.28 7.25Z"></path></g><defs data-v-fde0c5aa=""></defs><g data-v-fde0c5aa="" id="5b0a1299-c73e-413f-a312-d7a4b0528ec0" stroke="none" fill="#ffffff" transform="matrix(4.971865135787846,0,0,4.971865135787846,70.45015782739446,38.161941455499544)"><path d="m16 19.586 7.496-12.954H8.504zM7.496 12.414 0 25.368h14.992zM24.504 12.414l-7.496 12.954H32z"></path></g></svg>